<svg width="34" height="24" viewBox="0 0 34 24" fill="none" xmlns="http://www.w3.org/2000/svg">
<path d="M13.6666 10.3333H8.83498L8.83665 10.3183C9.05427 9.25273 9.4802 8.24059 10.09 7.34001C10.9974 6.00304 12.2702 4.95528 13.7566 4.32167C14.26 4.10834 14.785 3.94501 15.32 3.83667C16.4298 3.61167 17.5735 3.61167 18.6833 3.83667C20.2783 4.1635 21.7418 4.95236 22.8916 6.10501L25.2516 3.75167C24.188 2.68774 22.9296 1.83841 21.545 1.25001C20.8388 0.951056 20.1047 0.723263 19.3533 0.570007C17.803 0.255025 16.2053 0.255025 14.655 0.570007C13.9031 0.723898 13.1683 0.952245 12.4616 1.25167C10.3792 2.13518 8.59653 3.60182 7.32831 5.47501C6.47479 6.73809 5.87792 8.15666 5.57165 9.65001C5.52498 9.87501 5.49998 10.105 5.46665 10.3333H0.333313L6.99998 17L13.6666 10.3333ZM20.3333 13.6667H25.165L25.1633 13.68C24.7278 15.8163 23.4687 17.6952 21.6583 18.91C20.758 19.5203 19.7458 19.9463 18.68 20.1633C17.5707 20.3884 16.4276 20.3884 15.3183 20.1633C14.2527 19.9457 13.2406 19.5198 12.34 18.91C11.8977 18.6108 11.4847 18.2704 11.1066 17.8933L8.74998 20.25C9.81416 21.3137 11.0732 22.1624 12.4583 22.75C13.165 23.05 13.9033 23.2783 14.65 23.43C16.1997 23.7452 17.797 23.7452 19.3466 23.43C22.3342 22.8099 24.9621 21.049 26.6716 18.5217C27.5243 17.2595 28.1206 15.8421 28.4266 14.35C28.4716 14.125 28.4983 13.895 28.5316 13.6667H33.6666L27 7.00001L20.3333 13.6667Z" fill="black"/>
</svg>
